<svg width="24" height="24" viewBox="0 0 24 24" fill="none" xmlns="http://www.w3.org/2000/svg">
<path fill-rule="evenodd" clip-rule="evenodd" d="M16.5661 11.6926L17.7958 10.0594C18.405 9.25022 18.6615 8.25326 18.5182 7.2513C18.375 6.24934 17.8499 5.36426 17.0383 4.7569C15.3639 3.5042 12.9771 3.84085 11.7196 5.51211L4.95401 14.4978C2.93796 17.178 4.73157 20.3707 4.80872 20.5055C4.91293 20.6863 5.08828 20.8152 5.29269 20.8621C5.35081 20.8761 5.91194 21 6.69451 21C7.96005 21 9.80175 20.6773 11.0302 19.045L16.4096 11.9004C16.4409 11.8711 16.4701 11.8387 16.4967 11.8033C16.5235 11.7679 16.5466 11.7308 16.5661 11.6926ZM5.96404 19.4546C6.74661 19.5495 8.72058 19.6164 9.8278 18.145L14.8339 11.4961L11.1619 8.74747L6.15543 15.3968C5.02616 16.8993 5.64741 18.7384 5.96404 19.4546ZM12.0639 7.54959L15.7365 10.2974L16.5934 9.15932C17.3539 8.15037 17.1485 6.71286 16.1365 5.95465C15.1234 5.19844 13.6805 5.40322 12.921 6.41118L12.0639 7.54959Z" fill="white"/>
<path d="M20.2485 20.7384H13.8587C13.4438 20.7384 13.1072 20.4028 13.1072 19.9892C13.1072 19.5757 13.4438 19.24 13.8587 19.24H20.2485C20.6633 19.24 21 19.5757 21 19.9892C21 20.4028 20.6633 20.7384 20.2485 20.7384Z" fill="white"/>
</svg>
